<?xml version="1.0" encoding="UTF-8"?>
<svg version="1.1" xmlns="http://www.w3.org/2000/svg" width="131" height="114">
<path d="M0 0 C3.26617726 2.2092723 5.98215445 4.57897546 8.5625 7.5625 C8.5625 8.2225 8.5625 8.8825 8.5625 9.5625 C9.2225 9.5625 9.8825 9.5625 10.5625 9.5625 C8.97157948 13.69889336 5.95775082 16.79463248 2.5625 19.5625 C1.9025 19.5625 1.2425 19.5625 0.5625 19.5625 C0.005625 18.82 -0.55125 18.0775 -1.125 17.3125 C-3.97375509 13.92479125 -6.53406432 12.62067518 -10.4375 10.5625 C-11.4275 9.9025 -12.4175 9.2425 -13.4375 8.5625 C-25.96119987 4.7773519 -37.77404694 5.96088298 -49.3125 11.9375 C-52.84738973 13.98860885 -55.04546418 16.21364985 -57.4375 19.5625 C-58.0975 19.5625 -58.7575 19.5625 -59.4375 19.5625 C-59.685 20.201875 -59.9325 20.84125 -60.1875 21.5 C-61.53842417 24.80976421 -63.02392106 28.0420742 -64.53515625 31.28125 C-68.61944532 41.60689855 -66.60080893 52.61180498 -62.4375 62.5625 C-60.73236535 65.56982682 -58.81462627 68.05905301 -56.4375 70.5625 C-55.92445312 71.10390625 -55.41140625 71.6453125 -54.8828125 72.203125 C-46.82810272 79.83390268 -36.60635689 82.89263534 -25.72265625 82.7109375 C-15.55408376 82.05041484 -6.187941 77.33515612 0.73828125 69.9453125 C6.99611717 61.77126558 9.54687259 53.87308055 9.625 43.75 C9.9531845 38.36890588 10.67643106 35.54557768 14.5 31.6875 C18.10224895 28.5625 18.10224895 28.5625 20.5625 28.5625 C25.16005781 36.08063756 24.05151932 47.86581079 22.234375 56.12890625 C21.23934861 59.73298438 19.99309112 63.10523812 18.5625 66.5625 C18.170625 67.5525 17.77875 68.5425 17.375 69.5625 C17.106875 70.2225 16.83875 70.8825 16.5625 71.5625 C15.9025 71.5625 15.2425 71.5625 14.5625 71.5625 C14.44261719 72.15675781 14.32273437 72.75101562 14.19921875 73.36328125 C11.61831438 82.27769328 1.08380458 87.25969418 -6.4375 91.5625 C-16.95635483 96.67260613 -31.92318049 97.49621682 -43.23828125 94.37109375 C-58.48649061 88.76473614 -69.09444036 79.19048268 -76.109375 64.59375 C-81.53585487 52.20860771 -80.8353122 37.17680083 -76.4375 24.5625 C-76.01404297 23.32306641 -76.01404297 23.32306641 -75.58203125 22.05859375 C-70.8016754 10.64801254 -60.2647727 1.58782556 -49.19140625 -3.38671875 C-48.28261719 -3.73347656 -47.37382813 -4.08023437 -46.4375 -4.4375 C-45.14005859 -4.99244141 -45.14005859 -4.99244141 -43.81640625 -5.55859375 C-29.38954511 -9.31124549 -12.81181357 -7.42850108 0 0 Z " fill="#225256" transform="translate(84.4375,13.4375)"/>
<path d="M0 0 C2.45291885 2.13641319 2.90757462 3.59332831 3.625 6.75 C1.85471459 15.95548413 -10.55948619 24.70459879 -17.08203125 31.21484375 C-18.34533532 32.47882249 -19.60849101 33.74294955 -20.87150574 35.00721741 C-23.50313061 37.64030836 -26.13653528 40.27160244 -28.77124023 42.90161133 C-32.15189205 46.27653114 -35.52798695 49.65596843 -38.90279102 53.03673458 C-41.50285194 55.64040062 -44.10527933 58.24169075 -46.70844078 60.84225655 C-47.95515063 62.08829881 -49.20111669 63.33508574 -50.44632912 64.58262444 C-52.17901999 66.31784479 -53.91486611 68.04984472 -55.65161133 69.78100586 C-56.16641556 70.29783432 -56.68121979 70.81466278 -57.21162415 71.34715271 C-60.4002812 74.51676976 -62.01919479 75.82485621 -66.5 76.625 C-72.35284356 76.47867891 -75.49806903 72.60728607 -79.3984375 68.62792969 C-81.28491812 66.71039115 -83.20425359 64.82851704 -85.125 62.9453125 C-87.97877933 60.13233788 -90.82828064 57.31550361 -93.65625 54.4765625 C-94.25244141 53.87924316 -94.84863281 53.28192383 -95.46289062 52.66650391 C-97.76883159 50.16644784 -98.94023826 48.46813367 -99.375 45.0625 C-99 42 -99 42 -97.4375 39.6875 C-94.20308192 37.44828748 -91.91953479 37.06876377 -88 37 C-84.45692404 38.80353793 -81.78866167 40.97087229 -79.01171875 43.79296875 C-78.30595703 44.50517578 -77.60019531 45.21738281 -76.87304688 45.95117188 C-76.15181641 46.68916016 -75.43058594 47.42714844 -74.6875 48.1875 C-73.57665039 49.31188477 -73.57665039 49.31188477 -72.44335938 50.45898438 C-70.62428288 52.30153282 -68.81005611 54.14859662 -67 56 C-65.87512493 55.05763902 -64.7533205 54.11161194 -63.6328125 53.1640625 C-63.00777832 52.6376416 -62.38274414 52.1112207 -61.73876953 51.56884766 C-59.54179144 49.58657003 -57.83074918 47.31894896 -56 45 C-54.33333333 43.66666667 -52.66666667 42.33333333 -51 41 C-50.401875 40.236875 -49.80375 39.47375 -49.1875 38.6875 C-47.37082395 36.45558371 -45.73409228 34.83994743 -43.5625 33 C-39.547441 29.57047044 -35.79789511 25.91522279 -32.0625 22.1875 C-31.48250244 21.61193359 -30.90250488 21.03636719 -30.30493164 20.44335938 C-27.28313566 17.50225529 -27.28313566 17.50225529 -25 14 C-24.34 14 -23.68 14 -23 14 C-22.62101562 13.13568359 -22.62101562 13.13568359 -22.234375 12.25390625 C-17.70811182 3.98917885 -9.59978493 -2.71692026 0 0 Z " fill="#215155" transform="translate(122,9)"/>
<path d="M0 0 C0.66 0.33 1.32 0.66 2 1 C-2.16048113 5.84979161 -6.31778162 10.64444802 -11 15 C-11.66 15 -12.32 15 -13 15 C-11.38989473 10.92623969 -8.46177729 8.23492931 -5.375 5.25 C-4.859375 4.74339844 -4.34375 4.23679687 -3.8125 3.71484375 C-2.54616661 2.47196098 -1.2736856 1.23534724 0 0 Z " fill="#436C70" transform="translate(26,15)"/>
<path d="M0 0 C-1.16241005 3.02226613 -2.64733546 4.58629995 -5.0625 6.625 C-8.63622531 9.99873581 -8.78185953 13.27002537 -8.9921875 18.0234375 C-8.99476562 18.67570312 -8.99734375 19.32796875 -9 20 C-9.33 20 -9.66 20 -10 20 C-11.21948956 9.83758701 -11.21948956 9.83758701 -8.2890625 5.421875 C-2.88669065 0 -2.88669065 0 0 0 Z " fill="#709093" transform="translate(105,42)"/>
</svg>
